<?xml version="1.0" standalone="no"?>
<!DOCTYPE svg PUBLIC "-//W3C//DTD SVG 20010904//EN"
 "http://www.w3.org/TR/2001/REC-SVG-20010904/DTD/svg10.dtd">
<svg version="1.0" xmlns="http://www.w3.org/2000/svg"
 width="500.000000pt" height="500.000000pt" viewBox="0 0 500.000000 500.000000"
 preserveAspectRatio="xMidYMid meet">

<g transform="translate(0.000000,500.000000) scale(0.100000,-0.100000)"
fill="#000000" stroke="none">
<path d="M2428 4805 c-202 -29 -385 -86 -547 -171 -160 -84 -236 -140 -379
-279 -137 -131 -239 -270 -326 -443 -43 -86 -108 -277 -130 -384 -75 -361 -22
-745 145 -1066 69 -134 104 -187 197 -303 l69 -86 -69 -109 c-37 -60 -86 -136
-107 -169 -21 -33 -78 -123 -126 -200 -48 -77 -110 -173 -137 -213 -26 -41
-48 -75 -48 -77 0 -2 -27 -46 -60 -97 -33 -51 -60 -96 -60 -100 0 -4 379 -9
843 -10 l842 -3 0 -30 c0 -34 -25 -31 236 -27 l131 2 -6 24 c-5 21 -2 24 32
30 20 3 401 6 846 6 703 0 807 2 803 15 -4 8 -35 58 -70 112 -102 156 -197
304 -272 424 -38 61 -100 156 -136 212 -37 56 -90 139 -119 185 -41 65 -57 82
-76 82 -13 0 -24 -3 -24 -6 0 -4 32 -61 72 -128 40 -66 79 -134 88 -151 9 -16
60 -106 115 -200 54 -93 128 -222 165 -285 37 -63 77 -132 89 -153 13 -20 20
-37 17 -37 -4 0 -46 20 -95 45 l-89 44 -122 243 c-68 134 -163 321 -212 417
l-89 174 28 31 c175 190 313 469 373 751 43 204 36 525 -16 715 -46 164 -61
206 -131 345 -101 200 -227 356 -413 513 -203 171 -482 298 -765 348 -127 22
-348 26 -467 9z m522 -65 c19 -5 67 -16 105 -26 116 -29 318 -114 285 -121
-21 -4 -508 123 -526 137 -29 25 -15 33 44 26 31 -4 73 -11 92 -16z m-174 -85
c66 -13 128 -27 139 -29 11 -3 72 -14 135 -26 63 -12 147 -28 185 -36 39 -8
80 -17 93 -20 23 -5 26 -11 14 -31 -8 -12 -6 -13 -402 41 -102 14 -230 30
-285 37 -54 6 -108 15 -118 20 -30 17 -2 39 48 39 29 0 45 5 49 15 7 19 2 19
142 -10z m703 -130 c193 -128 345 -278 467 -460 42 -64 75 -117 73 -119 -10
-9 -115 -26 -157 -26 -26 0 -75 7 -110 15 -232 55 -393 255 -393 489 -1 98 9
156 25 156 7 0 49 -25 95 -55z m-624 -40 c127 -8 287 -17 358 -21 111 -6 127
-9 127 -24 0 -16 -31 -18 -396 -25 -343 -6 -398 -5 -412 8 -9 8 -31 18 -49 22
-32 6 -51 34 -38 55 4 7 38 9 93 5 48 -3 191 -12 317 -20z m485 -135 c0 -22
-4 -23 -200 -45 -74 -9 -179 -21 -234 -27 -74 -8 -103 -8 -117 0 -10 7 -30 12
-44 12 -18 0 -25 5 -25 20 0 11 1 20 3 21 5 2 524 36 570 38 40 1 47 -2 47
-19z m30 -74 c0 -33 -33 -46 -380 -146 -80 -23 -158 -46 -174 -51 -16 -5 -60
-9 -98 -9 -53 0 -70 4 -75 16 -9 23 10 36 61 41 28 4 46 11 46 18 0 9 26 17
73 25 39 6 167 33 282 60 193 44 265 57 265 46z m15 -106 c0 -9 -49 -42 -115
-78 -63 -35 -153 -85 -200 -112 -161 -91 -199 -110 -214 -110 -36 0 -7 48 39
64 19 7 19 8 3 20 -21 16 -23 30 -4 45 20 17 459 190 476 188 8 -1 15 -9 15
-17z m65 -53 c0 -11 -29 -36 -160 -142 -47 -38 -94 -77 -105 -86 -41 -36 -148
-125 -174 -143 -14 -11 -53 -43 -86 -71 -98 -83 -123 -99 -140 -85 -20 17 -19
33 5 48 12 7 20 23 21 40 0 24 28 47 241 197 133 94 270 191 306 217 59 43 92
52 92 25z m44 -52 c3 -9 -12 -34 -36 -62 -67 -78 -268 -303 -328 -368 -30 -33
-74 -82 -98 -108 -34 -37 -50 -47 -74 -47 -18 0 -45 -11 -64 -25 -29 -22 -33
-23 -45 -9 -11 14 7 36 138 162 321 314 487 472 494 472 4 0 9 -7 13 -15z m61
-75 c3 -6 -14 -40 -38 -78 -82 -124 -162 -251 -192 -303 -16 -28 -37 -58 -45
-65 -41 -38 -89 -74 -99 -74 -19 0 -12 38 15 93 34 67 321 437 339 437 8 0 17
-5 20 -10z m69 -110 c-14 -36 -41 -96 -59 -135 -60 -127 -95 -206 -95 -212 0
-3 -14 -36 -32 -74 -30 -65 -49 -82 -63 -59 -11 18 -23 11 -34 -20 -7 -20 -17
-30 -30 -30 -12 0 -21 6 -21 13 0 8 25 60 56 118 31 57 79 147 106 199 71 134
139 252 156 273 13 15 18 15 29 4 11 -11 9 -24 -13 -77z m96 36 c0 -8 -12 -58
-26 -112 -33 -130 -70 -277 -84 -339 -13 -58 -44 -105 -59 -90 -5 6 -11 35
-12 65 -2 46 9 89 65 254 37 109 71 207 77 218 11 21 39 24 39 4z m80 -35 c0
-15 -7 -77 -15 -137 -9 -60 -22 -163 -30 -229 -46 -389 -51 -415 -80 -415 -11
0 -15 12 -15 50 0 38 -4 50 -15 50 -18 0 -19 35 -4 100 17 72 88 417 104 504
8 43 17 87 20 97 9 27 35 11 35 -20z m84 -28 c3 -32 6 -212 7 -399 1 -285 -2
-346 -14 -365 -8 -13 -17 -36 -21 -51 -6 -28 -38 -39 -50 -19 -9 14 38 846 49
879 10 28 23 8 29 -45z m91 48 c10 -17 55 -392 57 -470 2 -117 -17 -172 -47
-140 -9 10 -17 78 -25 214 -25 426 -24 405 -7 405 9 0 18 -4 22 -9z m120 -116
c21 -49 48 -132 61 -184 24 -95 54 -292 54 -358 0 -30 -2 -34 -15 -23 -9 7
-15 29 -15 51 0 23 -6 41 -15 46 -10 6 -24 53 -39 133 -25 126 -40 196 -76
347 -11 45 -20 90 -20 99 0 17 1 16 14 -2 8 -11 31 -60 51 -109z m-1484 -382
c14 -38 6 -49 -38 -56 -40 -7 -70 -32 -113 -97 -13 -19 -56 -71 -95 -115 -101
-114 -127 -149 -179 -246 -56 -105 -61 -140 -6 -45 43 73 82 123 196 251 39
44 90 107 114 140 56 76 79 95 110 92 22 -2 25 -7 24 -37 0 -19 -4 -53 -8 -75
-8 -36 -7 -38 6 -21 34 44 57 -28 38 -118 -6 -31 -15 -56 -19 -56 -15 0 -29
24 -36 63 -8 42 -36 67 -66 60 -29 -8 -80 -76 -129 -173 -24 -47 -51 -96 -60
-110 -30 -45 -81 -142 -77 -147 8 -7 71 74 101 128 74 140 137 247 151 259 8
7 22 9 31 6 38 -15 2 -130 -121 -391 -31 -66 -76 -171 -101 -235 -109 -285
-191 -404 -340 -495 -41 -25 -79 -45 -83 -45 -5 0 -32 -18 -61 -41 l-51 -40
-35 21 c-19 12 -55 53 -79 90 -25 38 -72 94 -105 126 -33 32 -60 61 -60 64 0
3 13 14 30 23 33 20 44 53 55 158 3 37 17 90 31 120 14 30 34 97 44 151 20
103 37 143 106 250 66 104 87 148 93 207 8 70 30 87 66 51 l24 -25 -32 -75
c-19 -41 -52 -104 -75 -139 -44 -66 -48 -88 -11 -55 34 31 75 96 102 160 44
110 89 168 189 244 51 39 122 93 158 121 70 54 112 63 118 23 3 -24 -45 -77
-199 -215 -71 -65 -103 -103 -128 -150 -19 -35 -58 -99 -87 -141 -30 -44 -47
-78 -40 -78 23 0 66 52 111 135 47 85 130 187 206 252 58 50 188 180 219 219
48 60 90 62 111 7z m35 -533 c33 -127 32 -154 -12 -220 -56 -86 -71 -120 -104
-241 -17 -63 -36 -127 -42 -144 -12 -32 -78 -134 -128 -199 -34 -45 -40 -98
-14 -147 32 -62 15 -135 -40 -169 -28 -18 -119 -24 -160 -10 -48 16 -113 71
-154 132 -19 27 -32 51 -30 52 2 2 26 16 53 32 76 43 175 148 224 237 42 76
58 112 106 246 31 84 35 87 85 67 40 -16 41 -16 30 3 -17 32 -12 49 31 107 46
62 69 112 69 146 -1 15 -14 -2 -40 -52 -39 -76 -103 -160 -114 -149 -3 3 29
80 73 170 43 90 84 182 91 204 7 22 15 44 17 48 12 21 37 -27 59 -113z m1373
-1202 c110 -218 201 -399 201 -403 0 -7 -119 2 -205 16 -95 15 -378 70 -385
74 -4 2 -87 18 -186 35 -199 33 -317 38 -434 15 -136 -26 -159 -36 -221 -97
-32 -32 -60 -58 -63 -58 -3 0 -6 74 -6 164 l0 163 73 7 c190 19 366 70 552
161 157 78 313 185 410 284 27 28 52 48 56 43 3 -4 97 -186 208 -404z m-2492
340 l23 -21 -102 -196 c-55 -108 -137 -266 -181 -351 -77 -150 -102 -190 -118
-190 -4 0 -36 -16 -69 -36 -34 -20 -64 -34 -66 -31 -3 3 15 38 39 78 24 41
133 230 242 422 108 191 200 347 203 347 3 0 16 -10 29 -22z m132 -106 c49
-37 109 -78 133 -91 287 -158 484 -217 756 -228 l152 -6 0 -163 c0 -90 -4
-164 -8 -164 -4 0 -26 18 -47 41 -43 44 -87 70 -150 89 -103 30 -163 40 -243
41 -110 1 -156 -6 -532 -85 -63 -13 -169 -29 -235 -36 -66 -6 -154 -15 -195
-19 -41 -5 -77 -6 -80 -4 -3 3 56 122 130 266 74 144 153 299 175 344 22 45
43 82 47 83 5 0 48 -30 97 -68z m718 -506 c38 -8 101 -27 141 -42 60 -22 81
-37 127 -86 30 -32 55 -63 55 -69 0 -19 20 -8 34 19 8 15 35 48 60 73 64 65
142 95 283 108 139 13 234 3 493 -50 274 -56 461 -88 560 -95 71 -5 99 -13
173 -47 48 -22 87 -44 87 -49 0 -21 -464 9 -645 42 -165 31 -262 50 -340 67
-99 22 -290 29 -367 13 -114 -22 -159 -60 -183 -155 l-10 -40 -127 -3 -126 -3
-23 47 c-51 100 -146 138 -344 137 -120 -1 -206 -11 -496 -57 -233 -37 -699
-70 -699 -50 0 5 33 29 73 53 l72 44 220 22 c218 23 266 31 500 82 251 54 364
63 482 39z"/>
<path d="M2350 820 c0 -103 1 -110 20 -110 17 0 20 7 20 50 l0 50 45 0 45 0 0
-50 c0 -43 3 -50 20 -50 19 0 20 7 20 110 0 103 -1 110 -20 110 -17 0 -20 -7
-20 -45 l0 -45 -45 0 -45 0 0 45 c0 38 -3 45 -20 45 -19 0 -20 -7 -20 -110z"/>
<path d="M2660 821 c0 -90 3 -111 14 -111 10 0 16 14 18 43 l3 42 47 3 c35 2
52 9 63 25 39 55 4 99 -85 105 l-60 4 0 -111z m104 66 c10 -7 16 -22 14 -33
-5 -27 -81 -28 -86 -1 -9 44 32 63 72 34z"/>
<path d="M2910 820 c0 -91 3 -110 15 -110 11 0 15 12 15 50 l0 50 50 0 50 0 0
-50 c0 -38 4 -50 15 -50 12 0 15 19 15 110 0 91 -3 110 -15 110 -11 0 -15 -12
-15 -45 l0 -45 -50 0 -50 0 0 45 c0 33 -4 45 -15 45 -12 0 -15 -19 -15 -110z"/>
<path d="M2570 729 c0 -14 5 -19 17 -17 26 5 29 38 4 38 -15 0 -21 -6 -21 -21z"/>
<path d="M2820 730 c0 -13 7 -20 20 -20 13 0 20 7 20 20 0 13 -7 20 -20 20
-13 0 -20 -7 -20 -20z"/>
<path d="M1348 603 c673 -2 1771 -2 2440 0 669 1 119 2 -1223 2 -1342 0 -1890
-1 -1217 -2z"/>
<path d="M820 380 l0 -150 25 0 c24 0 25 2 25 65 l0 65 65 0 65 0 0 -65 c0
-63 1 -65 25 -65 l25 0 0 150 0 150 -25 0 c-23 0 -24 -4 -27 -62 l-3 -63 -60
0 -60 0 -3 63 c-3 58 -4 62 -27 62 l-25 0 0 -150z"/>
<path d="M1357 523 c-4 -3 -7 -71 -7 -150 l0 -143 25 0 c17 0 25 6 25 17 0 14
2 15 18 1 44 -40 100 -27 127 27 19 42 19 78 -1 121 -22 46 -64 55 -126 29
-16 -6 -18 -1 -18 49 0 48 -3 56 -18 56 -10 0 -22 -3 -25 -7z m137 -135 c41
-58 -8 -155 -60 -120 -34 22 -41 94 -13 129 17 20 56 16 73 -9z"/>
<path d="M2400 381 l0 -151 30 0 c30 0 30 1 30 55 l0 55 40 0 c90 0 139 46
125 117 -9 48 -39 63 -139 70 l-86 6 0 -152z m154 83 c37 -37 12 -74 -51 -74
l-43 0 0 45 0 45 39 0 c23 0 46 -7 55 -16z"/>
<path d="M3830 380 l0 -150 25 0 c24 0 25 2 25 65 l0 65 65 0 65 0 0 -65 c0
-63 1 -65 25 -65 l25 0 0 150 0 150 -25 0 c-23 0 -24 -4 -27 -62 l-3 -63 -60
0 -60 0 -3 63 c-3 58 -4 62 -27 62 l-25 0 0 -150z"/>
<path d="M4367 524 c-4 -4 -7 -72 -7 -151 l0 -143 30 0 31 0 -3 148 c-3 139
-4 147 -23 150 -12 2 -24 0 -28 -4z"/>
<path d="M4480 380 l0 -150 25 0 25 0 0 150 0 150 -25 0 -25 0 0 -150z"/>
<path d="M1141 421 c-28 -21 -40 -98 -22 -144 13 -34 72 -61 110 -52 27 7 61
32 61 45 0 17 -33 19 -56 4 -22 -15 -26 -15 -49 0 -47 31 -32 46 45 46 l70 0
0 29 c0 17 -11 42 -26 60 -21 26 -33 31 -67 31 -25 0 -52 -8 -66 -19z m97 -23
c7 -7 12 -20 12 -30 0 -15 -8 -18 -45 -18 -46 0 -53 7 -35 41 12 21 50 25 68
7z"/>
<path d="M1610 335 l0 -105 25 0 c24 0 25 2 25 68 0 75 12 99 50 104 14 2 26
11 28 21 3 13 -3 17 -27 17 -18 0 -34 -7 -40 -17 -10 -17 -10 -17 -11 0 0 11
-8 17 -25 17 l-25 0 0 -105z"/>
<path d="M1797 416 c-79 -74 -10 -214 94 -191 34 8 74 44 84 76 11 34 -4 89
-32 115 -36 34 -110 34 -146 0z m99 -14 c22 -15 36 -54 29 -88 -9 -53 -59 -70
-95 -34 -51 51 8 161 66 122z"/>
<path d="M2030 335 l0 -105 25 0 c24 0 25 2 25 68 0 72 17 112 49 112 32 0 41
-22 41 -102 0 -77 0 -78 25 -78 25 0 25 1 25 89 0 68 -4 93 -16 105 -20 21
-83 20 -106 -1 -17 -15 -18 -15 -18 0 0 11 -8 17 -25 17 l-25 0 0 -105z"/>
<path d="M2680 335 l0 -105 25 0 c24 0 25 3 25 60 0 74 15 108 49 112 33 4 43
38 10 38 -12 0 -31 -7 -41 -17 -17 -15 -18 -15 -18 0 0 11 -8 17 -25 17 l-25
0 0 -105z"/>
<path d="M2862 424 c-28 -19 -28 -31 -1 -39 15 -5 25 -2 31 9 11 20 51 21 68
1 17 -21 6 -32 -49 -45 -83 -20 -105 -71 -49 -113 26 -19 29 -20 68 -5 22 10
42 12 46 7 3 -5 15 -9 27 -9 21 0 22 2 17 91 -4 75 -8 93 -24 105 -26 19 -106
18 -134 -2z m108 -113 c0 -40 -51 -66 -78 -39 -19 19 -14 28 21 43 44 19 57
18 57 -4z"/>
<path d="M3065 413 c3 -16 20 -61 36 -101 16 -41 29 -82 29 -92 0 -20 -38 -52
-52 -44 -4 3 -8 -4 -8 -15 0 -17 6 -21 34 -21 19 0 41 6 49 14 15 15 18 22 72
171 21 55 39 103 42 108 2 4 -9 7 -26 7 -27 0 -31 -4 -41 -42 -19 -72 -34
-108 -41 -100 -3 4 -16 37 -29 75 -19 59 -25 67 -47 67 -22 0 -24 -3 -18 -27z"/>
<path d="M3331 421 c-20 -15 -25 -30 -29 -78 -4 -52 -1 -63 20 -88 20 -23 33
-28 70 -29 43 -1 88 22 88 45 0 17 -40 20 -56 5 -8 -9 -20 -16 -25 -16 -23 0
-49 22 -49 40 0 18 7 20 70 20 63 0 70 2 70 19 0 30 -19 73 -38 87 -25 20 -93
17 -121 -5z m99 -30 c18 -34 11 -41 -35 -41 -37 0 -45 3 -45 18 0 41 60 59 80
23z"/>
<path d="M3540 335 l0 -105 30 0 30 0 0 73 c0 78 9 97 46 97 13 0 24 8 27 20
4 16 0 20 -21 20 -14 0 -34 -7 -44 -17 -17 -15 -18 -15 -18 0 0 11 -8 17 -25
17 l-25 0 0 -105z"/>
<path d="M4141 416 l-22 -23 22 -6 c14 -4 27 0 34 9 17 24 69 15 73 -13 3 -18
-4 -23 -49 -32 -66 -14 -79 -25 -79 -66 0 -53 49 -77 102 -50 21 10 34 12 36
5 2 -5 13 -10 25 -10 21 0 22 3 19 87 -5 109 -15 123 -87 123 -41 0 -56 -5
-74 -24z m109 -111 c0 -31 -42 -55 -68 -38 -27 17 -20 37 18 50 49 17 50 16
50 -12z"/>
<path d="M1348 103 c673 -2 1771 -2 2440 0 669 1 119 2 -1223 2 -1342 0 -1890
-1 -1217 -2z"/>
</g>
</svg>
